<svg width="1375" height="603" viewBox="0 0 1375 603" fill="none" xmlns="http://www.w3.org/2000/svg">
<path d="M608.797 197.746L602.867 204.521L598.916 207.909L591.013 211.634L589.826 214.683C589.826 214.683 586.664 217.394 587.061 219.089C587.457 220.784 587.457 223.832 587.457 223.832C587.457 223.832 581.925 228.236 579.552 229.59C577.18 230.945 574.018 233.994 574.018 233.994C574.018 233.994 572.043 236.028 570.857 236.705C569.672 237.381 567.697 239.414 566.115 241.448C564.533 243.481 562.952 244.834 562.162 245.85C561.372 246.866 559 249.238 557.815 252.965C556.629 256.693 553.467 261.096 553.467 261.096L552.675 262.789C553.072 268.549 553.07 269.565 553.862 271.599C554.652 273.631 555.444 272.952 554.652 277.358C553.862 281.76 553.862 283.455 553.072 285.488C552.282 287.519 549.91 291.246 549.121 292.942C548.33 294.635 550.702 297.683 550.702 297.683C550.702 297.683 551.889 302.089 551.097 303.105C550.307 304.122 551.492 306.154 551.492 306.154C551.492 306.154 556.234 308.525 557.816 309.881C559.397 311.235 562.164 313.269 562.559 314.285C562.956 315.302 566.116 320.045 566.512 321.061C566.907 322.077 570.069 325.802 570.859 326.82C571.649 327.837 575.602 331.564 575.602 331.564C575.602 331.564 580.739 334.949 581.926 336.305C583.112 337.66 586.669 338.337 587.852 339.353C589.039 340.369 591.805 340.029 593.385 341.048C594.967 342.064 598.128 340.369 599.71 341.048C601.29 341.725 605.639 340.371 606.825 339.693C608.01 339.016 610.775 336.645 612.752 337.66C614.728 338.674 615.913 337.66 617.495 337.998C619.074 338.337 621.446 336.645 623.026 336.645C624.608 336.645 628.559 335.289 629.744 335.289C630.931 335.289 634.884 333.254 636.466 333.254C638.044 333.254 640.021 331.903 641.997 332.578C643.972 333.254 643.182 331.225 646.739 332.24C650.297 333.254 651.482 332.24 652.667 333.254C653.854 334.272 655.436 333.257 656.621 334.612C657.806 335.965 659.782 336.981 660.177 338.337C660.57 339.693 662.942 341.049 662.942 341.049L665.315 341.386C665.315 341.386 668.479 339.355 669.267 340.711C670.057 342.065 673.615 341.728 673.615 341.728L677.17 345.115L678.357 346.469C678.357 346.469 680.729 351.891 680.333 353.923C679.937 355.955 679.938 360.359 678.752 361.375C677.567 362.392 676.777 366.796 676.777 366.796C676.777 366.796 675.195 368.151 678.752 370.862C682.31 373.574 684.682 375.943 685.867 377.296C687.054 378.652 690.216 382.381 690.608 384.751C691.005 387.122 691.795 388.476 693.377 391.526C694.957 394.575 696.933 394.914 697.328 398.303C697.725 401.69 698.513 401.692 698.118 404.061C697.723 406.433 696.537 406.771 697.723 408.465C698.908 410.16 700.486 413.209 700.095 414.225C699.7 415.241 698.908 419.645 698.908 419.645L698.118 421.678L694.562 427.44L692.19 430.487C691.4 432.857 689.82 435.229 690.215 438.617C690.608 442.005 688.239 442.004 691.4 445.39C694.562 448.78 696.141 452.507 698.118 455.556C700.095 458.604 701.28 461.654 701.673 463.685C702.07 465.719 703.651 466.398 704.441 469.107C705.229 471.818 705.626 473.171 705.626 474.866C705.626 476.559 705.229 480.965 706.023 481.981C706.811 482.996 707.208 486.047 707.603 487.402C707.998 488.758 706.416 489.097 708.788 491.469C711.16 493.84 712.741 495.194 714.321 496.889C715.901 498.584 715.506 497.905 716.693 500.277C717.878 502.648 719.459 504.005 719.856 506.036C720.251 508.068 720.644 513.149 721.831 515.521C723.016 517.893 724.596 520.265 724.596 520.265C724.596 520.265 728.946 522.636 730.526 522.297C732.104 521.959 735.269 518.912 737.641 519.927C740.013 520.943 741.988 519.927 743.964 519.927C745.939 519.927 747.916 517.893 749.893 517.893C751.869 517.893 754.634 515.183 756.218 515.861C757.798 516.537 759.772 515.181 761.749 513.488C763.726 511.796 764.911 510.441 768.467 507.731C772.024 505.02 771.629 505.018 774 503.325C776.372 501.63 778.744 497.903 781.51 497.226C784.275 496.549 785.065 494.18 785.855 492.485C786.647 490.79 787.04 489.774 788.227 488.418C789.414 487.065 788.623 488.761 790.6 484.354C792.577 479.949 794.951 478.257 796.926 477.239C798.901 476.223 800.087 474.191 801.272 473.851C802.457 473.511 804.434 474.867 803.644 471.818C802.856 468.77 803.644 464.366 802.856 463.35C802.064 462.331 800.877 465.719 801.274 460.636C801.672 455.556 806.016 450.473 806.016 450.473C806.016 450.473 811.944 444.037 813.921 443.021C815.898 442.005 816.292 440.989 819.061 439.633C821.824 438.28 827.754 434.892 827.754 433.197C827.754 431.503 830.126 427.098 830.126 426.081C830.126 425.065 830.126 424.049 829.338 418.289C828.546 412.532 830.126 413.885 827.756 408.465C825.385 403.045 824.987 396.269 823.408 394.575C821.826 392.88 822.616 388.475 822.616 387.122C822.616 385.767 825.385 382.379 826.57 381.024C827.756 379.668 832.893 374.247 832.893 374.247C832.893 374.247 840.797 366.456 843.564 362.731C846.331 359.003 849.097 355.616 851.072 354.261C853.049 352.907 857.792 349.854 860.557 346.468C863.324 343.081 868.857 336.645 869.254 335.626C869.647 334.612 872.808 331.224 872.808 331.224C872.808 331.224 877.155 326.818 877.947 324.448C878.736 322.075 882.686 308.863 881.896 309.541C881.11 310.219 876.365 310.895 874.783 311.234C873.205 311.574 877.157 312.927 865.693 312.251C854.234 311.573 848.306 313.267 848.306 313.267C844.747 312.589 841.982 315.977 840.795 311.234C839.61 306.493 838.818 303.782 836.449 300.394C834.077 297.006 832.495 295.651 828.941 291.246C825.385 286.843 825.777 288.873 822.615 285.488C819.454 282.1 818.662 283.115 816.687 278.712C814.711 274.308 813.131 276.003 810.759 269.904C808.387 263.804 806.806 263.126 805.621 259.74C804.434 256.353 802.856 255.334 802.064 252.286C801.274 249.237 792.185 233.654 790.998 232.637C789.811 231.622 787.836 226.199 788.231 227.217C788.628 228.233 794.161 231.621 794.161 231.621C794.161 231.621 797.321 230.603 798.508 230.603C799.693 230.603 804.436 234.332 804.436 235.685C804.436 237.041 812.739 243.478 814.713 248.221C816.688 252.964 819.064 256.352 819.456 257.706C819.847 259.061 823.803 264.483 825.385 266.516C826.964 268.55 832.102 272.613 832.892 274.647C833.682 276.68 841.193 283.455 841.193 287.859C841.193 292.263 844.747 298.022 845.144 299.376C845.541 300.731 852.652 302.427 852.652 302.427L862.139 300.394C862.139 300.394 876.365 292.6 877.947 292.6C879.526 292.6 892.177 287.519 892.177 287.519C892.177 287.519 897.313 283.455 900.868 281.084C904.426 278.712 908.378 274.31 909.17 272.275C909.959 270.241 911.541 269.904 914.701 266.853C917.864 263.804 922.211 260.756 919.446 258.722C916.678 256.69 915.096 257.368 911.146 253.98C907.193 250.593 907.588 251.27 904.821 246.865C902.054 242.462 905.216 237.379 899.286 242.462C893.36 247.544 895.731 248.898 889.801 249.917C883.875 250.932 881.501 254.32 878.736 250.932C875.97 247.544 873.205 249.577 871.621 244.494C870.041 239.413 868.854 239.073 868.46 237.042C868.067 235.009 868.46 235.009 865.298 229.926C862.137 224.845 864.508 217.052 866.483 221.457C868.46 225.861 871.621 226.538 876.76 229.587C881.896 232.635 884.27 235.009 889.011 235.348C893.754 235.685 897.706 235.348 898.496 236.023C899.286 236.702 900.077 235.686 902.054 236.362C904.031 237.041 904.817 235.348 905.609 238.055C906.4 240.766 910.747 241.105 912.722 242.798C914.699 244.491 914.7 243.815 919.839 244.491C924.978 245.17 932.093 245.17 932.093 245.17L939.6 244.83L948.295 245.506C948.295 245.506 954.621 248.555 956.2 248.555C957.78 248.555 958.175 252.283 962.127 254.315C966.08 256.349 966.87 256.686 969.241 259.058C971.616 261.43 971.218 262.446 974.378 264.817C977.542 267.19 982.682 264.48 983.472 263.465C984.258 262.448 988.211 260.754 987.424 263.465C986.632 266.174 991.373 265.157 990.188 271.596C989.003 278.03 988.211 276.337 990.188 280.743C992.163 285.147 1000.86 298.698 1001.26 302.763C1001.65 306.828 1004.02 305.474 1004.42 309.202C1004.81 312.927 1007.18 314.282 1007.18 316.993C1007.18 319.703 1009.95 320.379 1010.34 322.414C1010.74 324.448 1015.09 322.751 1016.27 322.414C1017.46 322.074 1022.99 317.67 1022.99 317.67C1022.99 317.67 1025.37 316.994 1024.97 313.604C1024.57 310.219 1024.97 310.895 1024.97 305.814C1024.97 300.733 1022.6 300.732 1023.78 295.653C1024.97 290.571 1028.13 287.52 1028.92 285.15C1029.71 282.779 1032.87 278.714 1034.45 278.374C1036.03 278.035 1044.73 274.31 1046.71 271.936C1048.68 269.565 1051.84 266.855 1055.01 264.145C1058.17 261.436 1063.7 258.048 1064.89 259.064C1066.07 260.08 1065.68 259.741 1067.65 259.741C1069.63 259.741 1073.19 261.098 1075.95 261.436C1078.72 261.775 1084.25 267.534 1085.44 270.583C1086.62 273.632 1085.83 272.954 1090.18 277.359C1094.53 281.762 1098.48 279.051 1098.48 284.472C1098.48 289.894 1098.48 289.554 1100.46 291.587C1102.43 293.621 1104.8 287.861 1107.17 288.539C1109.55 289.218 1109.94 287.862 1111.92 293.282C1113.89 298.704 1115.08 298.704 1115.47 304.124C1115.87 309.544 1115.08 304.462 1115.08 308.865C1115.08 313.27 1114.68 313.609 1115.47 317.673C1116.26 321.741 1119.03 323.096 1118.64 323.773C1118.64 323.773 1121.01 318.015 1120.21 313.948C1119.43 309.884 1120.21 304.125 1122.19 302.432C1124.17 300.736 1126.15 299.044 1127.72 303.448C1129.31 307.85 1130.1 304.464 1133.65 309.545C1137.21 314.628 1140.37 313.609 1140.77 315.981C1141.16 318.353 1143.14 318.693 1145.9 320.724C1148.67 322.757 1151.04 320.387 1154.2 318.353C1157.37 316.32 1166.06 308.866 1166.46 305.817C1166.85 302.769 1170.41 303.445 1164.08 295.656C1157.76 287.863 1157.76 285.153 1151.04 280.41C1144.33 275.667 1140.37 275.329 1145.51 269.23C1150.65 263.131 1153.02 259.067 1156.18 260.762C1159.35 262.455 1164.87 262.115 1164.87 268.893C1164.87 275.667 1163.29 283.121 1168.83 274.99C1174.36 266.859 1177.13 262.117 1175.55 263.474C1173.97 264.829 1179.1 260.763 1179.1 260.763C1179.1 260.763 1179.5 257.714 1186.22 256.359C1192.94 255.002 1194.91 254.326 1197.28 253.31C1199.66 252.292 1206.37 245.516 1207.56 242.468C1208.75 239.419 1211.91 233.999 1211.12 231.628C1210.33 229.255 1206.37 217.739 1205.58 218.076C1204.79 218.416 1205.19 218.416 1200.05 213.673C1194.91 208.931 1191.36 205.543 1190.57 203.509C1189.78 201.476 1187.8 201.137 1190.17 198.428C1192.54 195.719 1193.73 196.057 1194.12 193.685C1194.52 191.314 1197.68 189.281 1191.75 190.976C1185.82 192.669 1190.17 191.655 1185.03 191.316C1179.89 190.976 1166.46 193.687 1173.18 186.573C1179.89 179.458 1181.87 175.056 1183.05 175.056C1184.24 175.056 1190.17 169.296 1190.56 174.716C1190.96 180.136 1193.33 178.78 1193.73 182.168C1194.12 185.556 1202.03 178.443 1202.03 178.443C1202.03 178.443 1204.79 179.12 1206.77 180.813C1208.75 182.506 1208.75 187.928 1208.75 187.928C1208.75 187.928 1207.16 186.233 1211.51 188.944C1215.86 191.656 1220.6 190.299 1220.6 196.059C1220.6 201.817 1220.6 202.158 1223.37 203.512C1226.14 204.867 1228.9 204.191 1231.27 202.496C1233.65 200.803 1237.6 194.704 1237.6 194.704C1237.6 194.704 1237.99 192.332 1231.67 188.944C1225.35 185.557 1221.39 183.187 1219.02 181.492C1216.65 179.799 1217.44 174.717 1219.81 172.682C1222.19 170.649 1223.37 169.633 1222.58 166.924C1221.79 164.211 1223.76 162.179 1229.69 162.518C1235.62 162.858 1236.81 162.181 1236.81 162.181C1236.81 162.181 1237.99 162.857 1237.99 160.825C1237.99 158.793 1245.5 149.306 1243.52 149.306C1241.55 149.306 1243.92 146.935 1242.73 143.209C1241.55 139.48 1246.69 133.723 1242.34 131.012C1237.99 128.302 1236.81 126.945 1234.04 122.882C1231.27 118.815 1231.67 118.139 1221.39 117.121C1211.12 116.105 1206.37 119.155 1204 116.446C1201.63 113.735 1200.45 120.509 1198.87 112.379C1197.29 104.248 1201.24 98.8263 1201.24 98.8263C1201.24 98.8263 1207.56 95.4398 1209.14 93.0677C1210.72 90.6956 1217.04 89.6796 1222.19 91.3744C1227.32 93.0677 1234.83 92.729 1241.16 93.748C1247.48 94.7625 1247.08 98.1505 1250.25 93.748C1253.41 89.3409 1250.25 87.3105 1252.62 84.9384C1254.99 82.5663 1257.76 78.8395 1259.73 81.2101C1261.71 83.5838 1265.66 85.9529 1268.83 82.9034C1271.99 79.8555 1273.17 79.5168 1273.17 79.5168L1274.75 80.873C1274.75 80.873 1278.31 79.1767 1278.31 82.2246C1278.31 85.2755 1281.87 88.6636 1279.89 91.0342C1277.91 93.4078 1275.15 93.0677 1275.15 98.8263C1275.15 104.588 1275.15 103.571 1279.49 108.315C1283.84 113.056 1286.61 108.991 1287.4 114.073C1288.19 119.155 1288.97 118.14 1293.33 121.527C1297.67 124.914 1296.88 124.914 1300.04 126.947C1303.21 128.98 1304.79 131.014 1304.79 127.626C1304.79 124.238 1305.18 122.544 1304.79 119.495C1304.39 116.447 1307.95 114.073 1305.57 108.992C1303.2 103.911 1305.18 104.249 1300.44 100.523C1295.69 96.7974 1292.53 101.201 1290.96 95.7799C1289.37 90.3599 1298.46 87.9878 1300.84 87.3105C1303.21 86.6347 1306.76 82.5678 1307.55 85.2785C1308.34 87.9878 1301.62 97.8134 1313.09 87.3105C1324.55 76.8091 1319.41 81.2131 1319.41 81.2131C1319.41 81.2131 1325.34 80.5358 1326.52 81.2131C1327.71 81.892 1330.87 78.1637 1329.68 78.5039C1328.5 78.8441 1317.04 73.0824 1317.04 73.0824L1308.74 69.0185C1308.74 69.0185 1311.51 67.3237 1313.48 67.6638C1315.46 68.0025 1315.86 64.2758 1317.83 63.9356C1319.81 63.5969 1333.24 66.3092 1336.01 67.6638C1338.78 69.0185 1348.66 69.3571 1347.47 68.6798C1346.28 68.001 1339.96 63.9371 1339.57 62.581C1339.17 61.2263 1325.34 58.5156 1320.99 58.8542C1316.64 59.1914 1312.69 60.2073 1309.14 59.1914C1305.58 58.1754 1300.44 55.4646 1297.67 55.4646C1294.91 55.4646 1260.13 49.7059 1258.55 50.0446C1256.97 50.3833 1254.6 56.8193 1253.41 55.8033C1252.23 54.7873 1250.25 54.7858 1244.71 53.4312C1239.18 52.0766 1231.67 51.0591 1221.79 50.3833C1211.91 49.7059 1205.2 51.0606 1202.43 48.3498C1199.66 45.6406 1193.74 46.6565 1187.02 46.3164C1180.3 45.9792 1172.39 46.3164 1168.84 46.3164C1165.28 46.3164 1156.98 45.9792 1155 45.639C1153.03 45.2989 1150.66 42.9283 1148.29 42.5911C1145.91 42.251 1146.31 41.5752 1141.57 40.8978C1136.82 40.219 1137.22 35.8165 1135.64 39.5417C1134.06 43.2699 1134.85 42.2525 1132.48 43.6071C1130.1 44.9632 1127.73 47.6725 1126.15 47.6725C1124.57 47.6725 1118.25 48.0112 1117.06 47.3338C1115.88 46.6565 1113.9 45.9792 1109.95 45.9792C1105.99 45.9792 1105.99 46.3164 1100.86 45.639C1095.72 44.9617 1091.77 45.2989 1087.02 43.2684C1082.28 41.235 1082.28 39.8804 1078.33 40.219C1074.38 40.5592 1074.38 39.5417 1068.84 39.5417C1063.31 39.5417 1056.6 42.2525 1053.04 42.5911C1049.48 42.9298 1041.58 42.251 1038.81 41.235C1036.04 40.219 1035.25 37.8484 1024.98 38.8629C1014.7 39.8804 1008.77 39.8804 1010.75 37.1696C1012.72 34.4603 1015.1 31.7496 1016.28 31.4109C1017.47 31.0723 1020.23 29.379 1018.25 28.7017C1016.28 28.0228 1014.3 27.0084 1009.56 26.6682C1004.82 26.3295 1005.21 28.0228 998.1 27.3455C990.987 26.6682 1002.05 24.9749 987.431 25.3136C972.808 25.6537 969.251 26.6682 967.671 26.6682C966.089 26.6682 964.112 23.9589 960.161 28.0228C956.208 32.0882 950.672 34.4588 942.771 34.7975C934.867 35.1377 934.471 34.1202 926.964 36.4908C919.454 38.8614 914.71 35.8135 916.292 41.2335C917.871 46.6535 919.849 48.687 919.849 49.7029C919.849 50.7189 916.292 57.4951 911.946 53.4297C907.595 49.3643 899.692 33.4414 903.25 44.2829C906.805 55.123 914.708 58.8512 907.202 60.5445C899.694 62.2378 900.48 59.8672 899.295 59.1884C898.112 58.511 899.295 53.7683 898.9 51.0576C898.503 48.3483 897.715 46.6535 896.135 45.2989C894.556 43.9428 894.948 41.9108 891.787 41.2335C888.625 40.5562 891.392 39.2 886.254 39.2C881.117 39.2 876.771 36.4893 877.956 42.5881C879.14 48.6855 880.325 44.6216 883.485 50.3803C886.646 56.1389 892.576 52.0735 888.23 56.1389C883.882 60.2043 872.422 58.8497 869.654 57.1564C866.887 55.4616 867.679 57.8337 862.538 54.7843C857.4 51.7349 858.984 49.3628 853.056 51.7349C847.128 54.107 845.151 58.511 842.779 56.8163C840.407 55.1215 834.876 59.1869 832.899 57.1564C830.922 55.123 823.017 55.123 821.438 57.1564C819.856 59.1884 815.113 58.8497 808.395 61.5605C801.677 64.2697 803.651 61.8976 795.353 67.6578C787.051 73.4165 782.308 78.1592 779.545 74.4325C776.777 70.7072 761.758 64.2697 767.687 63.2523C773.617 62.2363 776.382 60.2043 779.545 62.5749C782.707 64.9455 787.846 64.2697 788.633 62.5749C789.423 60.8801 792.982 59.1869 788.238 57.1549C783.495 55.1215 783.1 56.4761 775.592 54.1055C768.082 51.7334 775.592 52.4122 765.315 51.0561C755.04 49.7014 750.69 49.0241 747.925 48.3468C745.161 47.6695 741.207 48.3468 737.256 48.0081C733.302 47.6695 730.538 46.9922 726.979 47.3308C723.423 47.6695 721.448 46.9922 716.704 50.0416C711.959 53.091 708.402 54.4457 705.241 56.8163C702.081 59.1869 693.783 63.9311 691.41 65.6259C689.038 67.3192 680.738 72.7392 679.948 74.7726C679.158 76.8061 680.738 78.4994 677.576 79.854C674.413 81.2086 671.253 81.2086 668.881 81.5473C666.509 81.8859 668.881 78.4979 666.509 81.8859C664.138 85.274 664.928 97.4702 666.904 95.7754C668.879 94.0806 667.694 88.6621 676.389 93.745C685.084 98.8248 690.618 98.1475 690.222 102.89C689.827 107.633 696.149 107.294 696.94 108.312C697.73 109.326 701.682 106.956 701.682 106.956C701.682 106.956 710.377 102.213 710.377 99.8423C710.377 97.4702 715.91 92.0502 715.91 92.0502C715.91 92.0502 711.956 90.3569 711.956 86.9688C711.956 83.5822 713.145 82.5633 713.933 79.1752C714.723 75.7886 709.585 79.1767 721.443 72.7377C733.297 66.3017 734.089 70.7072 734.089 70.7072C734.089 70.7072 735.667 72.0619 733.692 74.0938C731.716 76.1273 728.159 81.5488 727.369 82.2246C726.577 82.9034 730.926 88.3234 732.9 88.3234C734.877 88.3234 738.83 86.9673 741.202 87.306C743.574 87.6461 747.525 86.2915 748.71 86.9688C749.897 87.6461 752.662 89.6781 750.685 91.3729C748.71 93.0662 744.361 95.0981 741.202 94.4223C738.038 93.7465 733.295 89.0008 736.062 95.7769C738.829 102.553 735.667 104.246 733.295 103.908C730.926 103.569 725.787 100.182 726.577 105.264C727.369 110.344 721.441 113.732 720.254 113.732C719.067 113.732 716.698 113.393 716.698 113.393C716.698 113.393 713.139 113.053 711.166 113.053C709.189 113.053 705.236 114.746 704.051 116.102C702.864 117.457 701.284 116.443 699.308 116.443C697.333 116.443 699.308 114.409 695.356 113.732C691.405 113.054 689.033 112.377 686.662 113.732C684.29 115.086 680.735 115.764 679.153 114.748C677.572 113.732 679.944 111.358 676.78 112.716C673.62 114.07 671.248 117.797 670.062 118.137C668.877 118.475 673.62 118.137 668.877 118.475C664.135 118.815 662.159 119.832 659.787 120.508C657.415 121.187 660.577 125.251 656.23 126.605C651.882 127.96 655.046 124.912 650.697 127.96C646.349 131.011 645.557 133.72 643.979 134.059C642.397 134.399 642.794 135.075 639.236 135.413C635.679 135.752 636.076 136.091 634.097 136.429C632.122 136.768 634.494 137.447 630.146 136.768C625.797 136.091 622.636 137.447 623.426 138.801C624.217 140.156 638.84 143.883 627.774 143.544C616.708 143.206 620.266 144.899 622.636 146.253C625.008 147.608 626.192 148.963 627.379 149.303C628.566 149.642 630.539 153.708 630.539 153.708C630.539 153.708 633.702 153.368 631.726 155.74C629.751 158.113 632.517 158.79 630.539 161.839C628.564 164.889 628.564 162.855 626.984 163.533C625.404 164.208 623.031 166.582 618.682 164.549C614.335 162.515 611.176 161.499 606.036 161.162C600.899 160.822 604.454 160.146 600.899 162.515C597.341 164.889 596.551 167.598 596.948 170.646C597.343 173.694 597.738 177.761 596.551 179.794C595.366 181.826 595.366 183.86 596.154 186.909C596.946 189.957 599.318 191.314 599.318 191.314C599.318 191.314 604.851 191.99 606.036 192.33C607.222 192.669 609.594 191.653 612.754 193.345C615.917 195.04 619.079 195.719 621.054 193.685C623.03 191.653 630.935 189.281 633.308 187.249C635.679 185.216 637.259 184.54 636.074 182.506C634.889 180.473 638.446 175.392 640.422 174.376C642.397 173.36 646.744 172.342 646.744 172.342L651.487 166.245C651.487 166.245 655.44 162.517 657.415 162.857C659.39 163.195 670.456 166.585 669.667 162.181C668.877 157.775 670.458 156.421 671.643 158.114C672.828 159.807 675.99 159.13 675.99 159.13C675.99 159.13 677.571 158.454 678.756 159.47C679.941 160.485 681.521 164.892 683.893 165.906C686.266 166.924 688.241 167.94 689.823 168.615C691.403 169.294 692.985 168.615 696.148 170.988C699.308 173.36 702.471 174.716 702.864 175.73C703.263 176.746 706.028 179.118 706.028 179.118C706.028 179.118 708.794 179.796 708.003 181.152C707.213 182.506 703.263 186.573 701.285 187.249C699.308 187.926 694.172 186.57 696.148 187.926C698.121 189.281 700.89 190.976 702.076 189.958C703.262 188.942 710.769 182.166 710.769 182.166C710.769 182.166 710.374 182.505 710.769 180.471C711.166 178.441 710.769 176.069 712.746 177.085C714.721 178.102 715.908 179.457 716.698 178.102C717.489 176.746 718.279 177.425 716.302 176.409C714.325 175.392 709.584 169.633 707.211 169.294C704.839 168.954 698.91 165.566 698.91 165.566C698.91 165.566 697.726 164.55 694.959 161.841C692.192 159.13 691.403 159.807 690.61 157.435C689.821 155.065 687.447 152.015 691.797 152.692C696.146 153.37 698.91 155.74 702.862 157.774C706.815 159.807 706.026 160.483 709.582 162.517C713.138 164.55 713.536 166.583 716.3 166.245C719.065 165.906 722.229 167.599 722.229 170.649C722.229 173.698 723.018 177.085 723.808 177.764C724.6 178.442 726.969 179.797 727.76 181.152C728.551 182.506 730.133 185.894 731.316 187.249C732.503 188.604 733.688 189.621 734.874 191.316C736.059 193.009 736.454 190.976 737.639 191.655C738.826 192.332 740.406 191.992 740.406 190.637C740.406 189.283 740.8 186.91 740.8 186.91C740.8 186.91 746.336 185.556 744.756 184.877C743.174 184.2 738.429 180.134 738.826 178.78C739.221 177.425 738.826 174.716 740.8 175.054C742.777 175.392 744.754 178.441 749.101 175.73C753.449 173.019 758.587 171.665 757.005 175.73C755.426 179.796 757.403 180.471 757.005 184.877C756.611 189.283 758.588 187.926 761.356 190.299C764.121 192.671 766.096 193.011 768.072 193.687C770.049 194.365 773.209 194.027 776.374 194.365C779.536 194.704 781.511 193.348 784.279 194.027C787.042 194.704 793.367 193.687 794.554 194.365C795.741 195.043 800.483 193.011 800.877 195.381C801.272 197.754 802.854 195.043 801.669 200.463C800.483 205.883 798.901 209.61 798.901 209.61C794.554 216.724 792.974 218.419 790.996 218.758C789.023 219.096 787.836 220.112 784.28 219.774C780.723 219.434 776.375 219.774 771.238 218.758C766.1 217.74 756.613 219.774 752.662 217.74C748.71 215.708 743.177 217.402 740.803 215.031C738.433 212.659 734.482 212.998 732.9 211.643C731.32 210.288 730.529 206.563 730.529 211.983C730.529 217.405 726.972 217.742 726.182 220.453C725.39 223.162 727.365 221.807 723.018 221.469C718.67 221.128 717.485 223.162 711.162 219.098C704.838 215.033 701.677 215.033 698.516 213.338C695.352 211.643 692.192 216.386 689.031 210.967C685.869 205.546 681.521 209.95 681.126 205.546C680.731 201.14 681.126 201.482 681.521 198.771C681.92 196.06 686.264 193.69 684.289 192.674C682.311 191.658 683.892 189.963 681.126 190.98C678.359 191.996 674.408 192.335 671.246 193.351C668.084 194.368 678.359 193.351 662.946 194.368C647.533 195.384 643.184 196.739 643.184 196.739C643.184 196.739 641.998 196.062 640.021 197.416C638.046 198.771 635.279 200.804 632.513 199.788C629.748 198.771 628.166 199.11 625.795 199.45C623.423 199.788 621.844 197.757 619.077 199.45C616.31 201.142 613.149 201.82 611.962 201.142C610.733 200.449 608.749 197.74 608.749 197.74L608.797 197.746Z" fill="#F8F8F8"/>
<path d="M873.196 420.658C872.011 424.386 867.663 429.805 867.663 429.805L859.756 433.193C859.756 433.193 856.994 435.226 855.411 435.565C853.83 435.902 849.878 437.598 849.878 437.598C849.878 437.598 846.322 436.919 847.506 439.967C848.691 443.017 849.088 446.745 848.691 447.76C848.298 448.777 848.298 450.81 848.298 453.521C848.298 456.23 847.112 459.617 845.135 460.294C843.16 460.973 841.183 461.651 841.578 464.023C841.975 466.395 841.975 473.508 841.975 473.508L847.114 480.284C847.114 480.284 848.694 479.268 851.857 479.268C855.016 479.268 858.18 476.899 858.18 476.899C858.18 476.899 861.739 477.573 861.34 473.85C860.945 470.121 862.924 465.719 862.525 464.701C862.132 463.685 866.085 459.28 866.085 458.265C866.085 457.248 870.037 452.508 870.037 450.812C870.037 449.119 872.803 446.408 873.198 444.378C873.593 442.343 873.988 437.601 874.778 436.247C875.57 434.892 875.965 433.536 875.965 432.181C875.965 430.827 875.965 428.116 875.965 428.116L873.156 420.65L873.196 420.658Z" fill="#F8F8F8"/>
<path d="M1182.65 466.399C1181.47 467.752 1180.68 482.322 1179.89 484.016C1179.1 485.709 1177.51 494.518 1178.31 496.549C1179.1 498.584 1180.28 506.036 1179.49 508.408C1178.7 510.778 1179.89 518.232 1177.91 517.893C1175.93 517.553 1175.15 518.233 1175.15 519.248C1175.15 520.265 1177.91 522.296 1177.91 522.296C1177.91 522.296 1182.65 522.297 1184.63 521.957C1186.61 521.619 1190.56 519.924 1193.72 519.924C1196.88 519.924 1198.86 517.89 1201.62 517.89C1204.39 517.89 1210.32 516.199 1211.9 516.874C1213.48 517.55 1215.85 512.809 1218.62 513.826C1221.39 514.842 1227.32 511.454 1230.08 511.454C1232.84 511.454 1234.03 507.726 1237.2 508.406C1240.36 509.084 1246.29 507.052 1249.05 508.065C1251.81 509.084 1256.17 504.678 1258.14 508.065C1260.12 511.454 1266.05 512.809 1266.05 514.502C1266.05 516.196 1265.65 519.924 1265.65 519.924L1270.39 519.584C1270.39 519.584 1277.9 515.518 1279.09 515.518C1280.27 515.518 1283.04 512.132 1283.04 513.826C1283.04 515.518 1280.67 519.248 1279.88 520.94C1279.09 522.634 1280.67 524.668 1280.67 524.668C1280.67 524.668 1284.62 526.361 1283.04 529.409C1281.46 532.459 1283.43 531.783 1283.04 534.152C1282.64 536.524 1283.04 535.507 1284.62 536.861C1286.2 538.217 1288.97 540.592 1291.34 540.251C1293.71 539.911 1294.5 537.88 1296.48 538.896C1298.45 539.912 1302.4 539.235 1303.59 540.591C1304.78 541.944 1296.08 545.332 1311.1 539.575C1326.12 533.813 1327.69 532.459 1329.67 530.425C1331.65 528.393 1334.02 526.361 1335.6 525.005C1337.18 523.65 1336 523.989 1340.74 520.94C1345.48 517.892 1345.48 519.246 1349.83 513.486C1354.18 507.729 1357.34 505.696 1358.13 504.678C1358.92 503.661 1360.5 503.324 1360.9 499.255C1361.29 495.191 1364.45 491.464 1364.45 490.11C1364.45 488.757 1365.64 486.725 1365.24 484.351C1364.85 481.979 1366.82 478.594 1364.45 475.206C1362.08 471.816 1365.64 470.465 1362.08 469.106C1358.52 467.751 1356.15 468.43 1355.36 466.058C1354.57 463.686 1351.41 464.024 1350.22 457.588C1349.04 451.152 1344.29 450.472 1344.29 450.472C1344.29 450.472 1339.55 448.779 1340.74 448.103C1341.93 447.424 1342.32 442.68 1341.93 441.325C1341.53 439.97 1341.53 436.921 1340.35 434.891C1339.16 432.856 1338.37 430.148 1337.18 427.774C1336 425.404 1334.02 424.725 1333.23 422.016C1332.44 419.306 1331.25 418.287 1330.86 417.612C1330.46 416.934 1329.67 413.548 1328.88 417.271C1328.09 420.998 1326.51 428.111 1326.51 428.111C1326.51 428.111 1323.35 433.873 1322.16 435.566C1320.98 437.258 1319.79 441.664 1317.82 441.324C1315.84 440.985 1314.65 443.02 1313.07 442.678C1311.49 442.338 1309.12 443.018 1307.94 442.002C1306.75 440.985 1303.59 438.276 1302.01 437.936C1300.43 437.598 1299.24 434.889 1298.05 434.889C1296.87 434.889 1294.89 432.515 1295.29 431.161C1295.68 429.806 1296.08 426.758 1296.47 425.402C1296.87 424.048 1299.24 420.997 1299.24 420.997C1299.24 420.997 1299.24 418.965 1297.26 418.965C1295.29 418.965 1294.89 418.965 1290.54 418.625C1286.2 418.284 1285.01 417.947 1283.43 417.947C1281.85 417.947 1285.01 417.27 1280.66 418.286C1276.32 419.305 1274.34 422.014 1271.57 424.386C1268.81 426.757 1271.18 426.078 1268.81 426.757C1266.44 427.436 1266.83 425.062 1265.25 428.79C1263.67 432.517 1266.04 433.531 1264.85 434.21C1263.67 434.889 1255.37 431.84 1255.37 431.84C1255.37 431.84 1257.35 431.5 1255.77 429.806C1254.19 428.111 1252.6 425.742 1250.24 426.758C1247.86 427.774 1245.88 428.453 1244.31 430.146C1242.72 431.84 1242.72 433.194 1241.54 434.549C1240.35 435.904 1237.19 435.904 1236.8 437.26C1236.4 438.616 1236.4 442.002 1235.22 442.341C1234.03 442.681 1233.64 440.989 1232.45 440.649C1231.27 440.311 1231.66 437.6 1230.87 439.295C1230.08 440.988 1229.29 440.648 1228.11 443.359C1226.92 446.069 1226.52 448.441 1225.34 448.78C1224.15 449.12 1225.34 449.457 1221.78 451.152C1218.23 452.845 1217.43 452.845 1212.3 454.879C1207.16 456.912 1208.35 456.912 1204.79 457.25C1201.24 457.59 1200.44 458.606 1198.07 458.944C1195.7 459.283 1194.12 459.62 1191.75 461.654C1189.38 463.687 1187.4 464.363 1185.82 464.703C1184.24 465.043 1182.73 466.374 1182.73 466.374L1182.65 466.399Z" fill="#F8F8F8"/>
<path d="M1205.97 332.577C1204.39 334.612 1199.25 340.708 1197.28 341.048C1195.3 341.385 1193.32 343.081 1191.74 342.741C1190.16 342.401 1186.61 342.741 1185.42 347.145C1184.23 351.549 1182.26 353.921 1181.07 353.581C1179.88 353.243 1183.04 360.017 1176.33 357.309C1169.61 354.599 1171.98 359.682 1171.19 361.038C1170.4 362.391 1172.38 366.119 1172.77 367.474C1173.17 368.828 1174.35 371.2 1175.93 373.231C1177.51 375.264 1178.7 377.635 1181.47 376.961C1184.23 376.28 1192.92 376.961 1192.92 376.961C1192.92 376.961 1196.09 377.977 1198.06 377.977C1200.04 377.977 1200.44 377.299 1201.62 377.299C1202.8 377.299 1205.18 373.91 1204.78 373.573C1204.39 373.231 1203.2 372.216 1205.57 370.183C1207.94 368.15 1210.71 367.474 1211.11 365.102C1211.5 362.731 1210.32 362.731 1211.5 361.373C1212.69 360.019 1215.45 360.36 1214.66 359.003C1213.87 357.648 1215.45 357.987 1213.87 355.274C1212.29 352.565 1210.31 351.548 1211.9 348.16C1213.48 344.773 1215.06 344.094 1214.66 342.062C1214.27 340.027 1216.64 339.352 1213.87 336.979C1211.11 334.61 1209.92 333.932 1207.94 333.251L1206 332.559L1205.97 332.577Z" fill="#F8F8F8"/>
<path d="M1283.44 366.458C1285.02 366.119 1290.55 362.731 1290.95 368.83C1291.34 374.927 1291.74 373.232 1294.11 376.62C1296.48 380.008 1298.06 381.027 1300.83 379.333C1303.59 377.636 1306.75 377.636 1307.54 374.59C1308.34 371.541 1308.34 371.541 1310.71 371.541C1313.08 371.541 1313.87 371.202 1315.06 372.56C1316.24 373.911 1317.03 372.557 1322.17 374.929C1327.31 377.301 1331.65 376.62 1334.82 378.994C1337.98 381.365 1339.56 381.029 1343.91 382.382C1348.26 383.737 1346.28 381.705 1350.23 385.432C1354.19 389.157 1352.61 390.173 1354.58 391.868C1356.55 393.561 1358.14 390.511 1357.35 394.577C1356.55 398.642 1351.02 394.577 1359.32 400.334C1367.62 406.096 1368.81 407.113 1371.57 408.805C1374.34 410.5 1376.32 412.533 1373.95 412.533C1371.57 412.533 1364.07 412.533 1363.28 411.516C1362.49 410.5 1358.93 409.821 1356.56 407.45C1354.19 405.081 1349.05 403.385 1347.87 401.353C1346.68 399.318 1345.1 398.642 1343.12 398.642C1341.15 398.642 1339.17 400.674 1336.4 403.046C1333.64 405.417 1334.83 401.693 1331.26 402.708C1327.71 403.725 1323.76 402.367 1321.78 401.013C1319.8 399.658 1320.2 397.626 1317.04 398.642C1313.87 399.658 1311.9 398.981 1313.09 396.949C1314.27 394.914 1313.48 392.205 1313.48 392.205C1313.48 392.205 1314.67 388.817 1311.9 388.141C1309.14 387.465 1309.14 385.093 1306.37 384.413C1303.6 383.737 1299.26 382.042 1299.26 382.042C1299.26 382.042 1298.86 382.042 1297.67 381.703C1296.49 381.363 1296.49 381.363 1293.33 380.687C1290.17 380.008 1287.79 380.684 1286.21 378.993C1284.63 377.299 1285.42 374.927 1285.42 374.927C1285.42 374.927 1291.75 375.604 1285.42 371.539L1279.1 367.475C1279.1 367.475 1279.89 367.135 1279.49 366.458C1279.09 365.765 1283.44 366.443 1283.44 366.443L1283.44 366.458Z" fill="#F8F8F8"/>
<path d="M1105.59 338.326C1105.59 338.326 1107.56 340.023 1110.72 339.683C1113.88 339.342 1116.25 345.103 1118.23 347.135C1120.21 349.168 1121.4 350.184 1125.74 352.556C1130.09 354.927 1129.69 350.523 1135.62 357.637C1141.55 364.751 1138.78 360.348 1141.55 364.751C1144.32 369.159 1145.9 371.528 1147.48 372.547C1149.06 373.563 1150.24 376.271 1150.64 377.289C1151.03 378.305 1153.8 381.352 1153.8 382.37C1153.8 383.386 1154.59 386.097 1152.22 388.467C1149.85 390.839 1147.87 391.178 1147.87 391.178C1147.87 391.178 1143.13 389.145 1141.55 387.113C1139.97 385.081 1137.99 383.386 1135.22 379.322C1132.46 375.255 1129.3 370.851 1127.72 368.819C1126.14 366.784 1123.76 364.751 1122.58 362.72C1121.39 360.685 1118.23 354.59 1116.65 353.911C1115.07 353.232 1114.67 351.201 1111.91 348.829C1109.14 346.457 1109.54 344.425 1108.35 343.071C1107.17 341.716 1104.4 338.664 1104.4 338.664L1105.56 338.332L1105.59 338.326Z" fill="#F8F8F8"/>
<path d="M336.899 602.585C334.132 601.23 328.204 598.858 326.229 597.503C324.254 596.149 318.326 588.692 318.326 588.692L313.977 581.577C313.977 581.577 308.841 576.157 310.026 574.125C311.211 572.092 313.583 570.737 313.583 569.721C313.583 568.705 315.954 565.993 313.977 564.979C312.001 563.961 312.001 563.624 310.814 560.575C309.629 557.527 309.629 554.813 308.049 554.137C306.467 553.461 305.281 549.056 303.701 548.717C302.121 548.377 300.539 546.006 300.539 546.006L298.167 518.564C298.167 518.564 297.375 506.031 296.586 503.319C295.794 500.61 297.772 494.851 295.794 489.768C293.819 484.687 296.191 478.589 295.004 476.556C293.819 474.522 295.794 468.765 294.609 463.345C293.424 457.925 299.352 451.149 294.609 449.117C289.867 447.082 293.424 444.034 289.472 444.034C285.521 444.034 282.754 442.339 279.196 439.97C275.639 437.598 268.919 433.193 266.944 431.498C264.968 429.806 258.644 425.4 256.668 424.046C254.693 422.691 252.716 416.931 251.136 415.236C249.555 413.544 248.765 408.463 246.393 405.414C244.021 402.366 240.86 397.284 240.068 396.267C239.278 395.251 230.583 386.443 230.583 386.443L231.373 381.023C231.373 381.023 237.301 377.973 236.511 376.957C235.721 375.94 236.908 374.922 234.139 372.892C231.371 370.857 231.767 367.13 234.139 365.439C236.511 363.742 240.067 358.322 240.067 358.322L245.994 349.854C245.994 349.854 250.739 345.447 250.739 342.399C250.739 339.351 257.457 337.319 253.504 334.609C249.552 331.896 251.529 329.526 250.342 327.492C249.155 325.46 249.947 324.106 253.504 322.072C257.062 320.039 263.385 312.587 263.385 312.587C263.385 312.587 268.127 311.569 269.312 311.569C270.498 311.569 272.475 300.726 276.032 307.841C279.59 314.956 280.775 311.229 279.59 316.311C278.403 321.392 281.17 320.378 282.75 319.023C284.33 317.665 281.958 320.039 285.121 313.939C288.281 307.841 287.098 305.809 289.073 307.504C291.048 309.199 291.838 309.537 295.396 310.553C298.952 311.569 300.139 311.229 301.322 313.263C302.507 315.296 302.114 312.585 308.832 313.603C315.55 314.62 325.035 311.569 323.85 314.956C322.665 318.344 320.292 314.617 325.825 318.344C331.358 322.072 332.15 322.748 335.31 323.427C338.471 324.104 341.238 323.766 345.983 327.831C350.725 331.895 351.91 332.235 353.096 334.266C354.281 336.3 356.256 334.944 358.233 336.976C360.209 339.011 362.976 339.011 365.741 339.011C368.507 339.011 365.741 336.976 370.089 339.689C374.438 342.398 377.599 342.735 379.574 348.156C381.55 353.581 385.502 353.239 382.34 358.661C379.179 364.082 372.856 366.453 375.622 366.114C378.387 365.774 383.527 363.741 385.107 364.081C386.687 364.418 387.477 363.065 389.85 364.081C392.222 365.097 392.617 362.726 392.222 365.097C391.825 367.469 391.825 365.097 391.825 367.469C391.825 369.84 391.035 365.097 395.777 366.114C400.52 367.13 397.753 364.079 403.286 368.485C408.82 372.891 408.82 371.536 410.794 373.907C412.771 376.276 414.746 372.553 415.933 373.568C417.12 374.582 420.676 373.905 424.233 374.584C427.791 375.26 425.418 372.552 430.953 375.6C436.484 378.648 442.018 377.632 443.204 380.343C444.389 383.052 447.553 382.036 449.131 383.731C450.71 385.425 451.502 383.052 453.084 385.425C454.664 387.794 459.409 387.117 458.617 389.488C457.825 391.861 459.8 390.505 459.01 393.892C458.222 397.283 455.453 402.703 453.084 404.056C450.712 405.412 450.713 407.105 449.131 408.799C447.551 410.495 447.946 407.105 445.969 411.848C443.994 416.592 444.389 417.27 442.808 421.672C441.228 426.075 442.413 421.672 441.228 426.076C440.043 430.48 440.833 433.191 439.648 438.274C438.463 443.354 438.858 443.355 438.068 447.082C437.277 450.809 440.043 445.39 436.486 453.179C432.93 460.973 432.535 460.631 431.35 464.021C430.163 467.411 431.745 464.698 427.397 466.732C423.05 468.767 425.422 468.086 420.282 469.443C415.146 470.797 408.822 472.155 406.846 472.492C404.871 472.829 396.966 474.863 399.338 478.926C401.711 482.993 401.711 483.671 399.338 488.754C396.966 493.833 393.411 495.53 393.411 497.899C393.411 500.269 391.828 502.64 391.435 504.335C391.038 506.03 394.991 502.64 390.25 507.723C385.507 512.804 385.112 511.45 383.53 514.499C381.95 517.547 383.53 515.175 381.95 517.547C380.37 519.918 376.417 520.934 376.417 520.934C376.417 520.934 376.81 522.628 375.23 521.951C373.648 521.275 374.045 522.29 368.115 520.934C362.188 519.579 361.397 516.194 360.607 518.563C359.817 520.934 361.002 522.291 364.56 524.662C368.115 527.034 374.045 527.71 372.463 530.083C370.883 532.455 370.883 532.455 369.697 533.81C368.51 535.166 371.278 534.149 368.51 535.166C365.745 536.182 364.163 540.588 362.978 540.588C361.792 540.588 361.001 542.281 359.42 541.604C357.84 540.925 353.889 538.554 353.097 539.909C352.307 541.262 350.725 538.214 351.12 542.957C351.517 547.7 352.307 550.41 350.33 551.428C348.355 552.444 343.61 551.428 343.61 551.428L342.82 549.733L340.055 550.41C340.055 550.41 338.87 554.476 340.845 555.153C342.82 555.83 342.425 556.506 344.401 558.54C346.378 560.573 345.192 564.3 345.192 564.3C345.192 564.3 345.192 565.317 343.217 567.011C341.242 568.704 340.45 570.06 340.055 571.076C339.658 572.092 337.288 576.497 340.845 576.157C344.401 575.817 347.17 574.124 347.17 579.545C347.17 584.965 348.75 583.612 346.775 587.338C344.797 591.064 343.217 591.403 342.822 594.789C342.429 598.178 343.219 598.516 344.009 600.55C344.799 602.583 346.776 601.566 344.799 602.583C342.833 603.546 336.915 602.538 336.915 602.538L336.899 602.585Z" fill="#F8F8F8"/>
<path d="M234.936 326.812L232.17 323.426C232.17 323.426 230.985 321.391 229.008 321.053C227.031 320.716 222.683 316.311 222.683 316.311C222.683 316.311 220.708 314.956 220.708 312.586C220.708 310.213 219.126 306.488 220.311 302.423C221.498 298.359 221.893 293.276 221.498 291.92C221.101 290.565 223.474 290.227 220.708 288.87C217.941 287.516 212.408 287.177 208.851 287.177C205.295 287.177 200.946 288.195 200.156 288.532C199.365 288.87 204.503 278.369 205.293 276.676C206.083 274.983 209.641 267.528 209.641 266.513C209.641 265.496 210.826 265.157 208.456 263.804C206.085 262.448 202.133 261.77 199.76 262.786C197.39 263.804 197.785 261.432 195.81 265.496C193.834 269.562 191.857 273.967 189.485 274.644C187.115 275.323 182.372 277.355 182.372 277.355C182.372 277.355 176.444 277.016 174.467 276.677C172.492 276.339 164.192 272.612 162.611 270.241C161.031 267.869 160.241 262.786 160.241 260.417C160.241 258.045 164.587 250.932 164.192 249.237C163.797 247.544 168.541 240.768 168.144 239.75C167.747 238.734 168.934 235.346 170.12 233.991C171.305 232.637 177.234 230.942 178.815 229.587C180.395 228.231 183.162 226.539 185.928 225.861C188.693 225.182 191.067 224.506 193.043 224.506C195.018 224.506 200.156 220.779 200.946 224.506C201.738 228.231 205.295 226.877 207.27 227.215C209.246 227.555 209.643 229.249 212.803 224.845C215.965 220.439 219.126 219.084 219.126 220.1C219.126 221.118 224.264 219.763 225.054 220.779C225.844 221.795 227.426 220.1 230.192 222.134C232.959 224.167 236.91 224.506 236.514 225.52C236.119 226.536 238.095 226.536 238.095 227.554C238.095 228.57 239.677 225.182 239.677 231.279C239.677 237.378 241.652 241.105 241.652 241.105C241.652 241.105 244.418 246.188 245.603 245.17C246.788 244.154 249.158 241.445 249.158 241.445C249.158 241.445 253.111 239.411 250.345 232.297C247.578 225.183 249.555 223.15 248.765 220.778C247.973 218.406 247.973 217.049 252.716 214.002C257.458 210.954 268.919 204.177 271.686 202.823C274.452 201.468 280.775 197.741 280.775 197.741C280.775 197.741 283.145 196.726 283.542 194.015C283.937 191.305 291.445 186.561 291.842 185.207C292.239 183.852 297.376 180.465 297.376 180.465C297.376 180.465 302.908 177.753 302.512 176.061C302.117 174.368 309.627 171.32 310.812 171.32C311.998 171.32 318.322 173.012 318.322 169.963C318.322 166.915 318.322 166.236 322.275 163.527C326.226 160.817 331.363 156.75 333.34 156.75C335.316 156.75 342.035 153.704 344.801 153.025C347.568 152.346 356.263 148.958 348.358 153.025C340.453 157.089 345.591 154.718 344.011 158.107C342.432 161.493 341.243 165.899 348.753 160.816C356.263 155.734 355.866 154.717 358.634 154.38C361.401 154.041 359.424 155.396 365.352 153.701C371.281 152.008 371.676 151.33 371.676 151.33C371.676 151.33 374.444 149.297 372.862 148.282C371.281 147.265 374.444 145.91 368.514 147.942C362.586 149.976 362.981 150.314 359.029 149.297C355.078 148.281 349.148 148.618 353.496 145.23C357.844 141.843 363.376 140.826 359.819 139.471C356.263 138.117 347.173 139.811 345.988 140.149C344.801 140.487 342.035 139.81 339.663 140.149C337.293 140.487 338.083 137.441 339.663 136.762C341.245 136.083 346.383 134.05 352.706 132.695C359.029 131.341 374.444 131.002 377.999 131.002C381.555 131.002 386.297 131.681 389.065 129.986C391.83 128.293 397.365 125.583 398.155 124.226C398.947 122.871 402.107 120.839 402.107 120.839C402.107 120.839 405.663 117.79 403.688 116.435C401.712 115.08 399.735 112.031 398.155 112.708C396.575 113.386 397.762 117.453 394.599 113.047C391.437 108.644 391.832 107.966 390.252 106.95C388.671 105.934 387.089 106.609 388.276 101.868C389.462 97.1256 389.066 95.0921 389.066 95.0921C389.066 95.0921 390.252 91.0282 389.066 90.6896C387.88 90.3494 387.091 89.3349 385.116 90.3494C383.139 91.3654 372.073 96.1096 369.703 97.1256C367.331 98.1415 364.168 93.0602 365.353 90.6896C366.54 88.316 365.748 89.6721 364.168 86.2855C362.588 82.8974 356.265 82.2186 353.893 82.2186C351.521 82.2186 345.99 79.1692 344.408 81.2026C342.827 83.2346 334.529 89.6706 332.945 90.3494C331.365 91.0282 328.995 84.5907 327.809 95.0921C326.622 105.597 332.157 108.644 325.834 109.322C319.511 109.999 313.977 113.047 313.977 113.047C313.977 113.047 308.841 113.387 308.841 116.096C308.841 118.809 306.865 125.243 304.491 125.921C302.121 126.599 296.191 125.583 294.216 123.55C292.241 121.516 294.611 114.064 294.611 114.064L298.168 111.015C298.168 111.015 272.875 107.628 273.268 106.272C273.665 104.918 265.76 102.547 264.97 100.514C264.18 98.4802 263.783 94.0761 264.575 92.3829C265.365 90.6896 276.036 82.5588 281.568 80.8655C287.101 79.1707 296.586 75.4455 299.354 74.7666C302.121 74.0893 306.862 74.428 308.444 72.7347C310.024 71.0399 310.419 67.992 310.419 67.992C310.419 67.992 309.629 63.2478 311.209 63.9251C312.79 64.6039 315.557 65.6199 315.952 66.6359C316.349 67.6518 316.349 70.0239 319.114 67.3117C321.881 64.6024 325.439 63.5849 328.599 62.2318C331.762 60.8757 336.503 61.2158 339.272 59.8612C342.037 58.5066 346.78 57.1504 347.175 53.7624C347.57 50.3758 345.99 51.3917 344.013 51.0516C342.037 50.7144 344.803 51.3917 338.085 54.101C331.365 56.8103 333.342 54.7783 328.599 56.8103C323.857 58.8437 323.46 59.1824 323.067 57.4891C322.67 55.7943 323.857 53.085 323.857 53.085C323.857 53.085 324.254 52.7449 321.486 52.0691C318.719 51.3918 318.719 52.4077 318.324 49.3598C317.929 46.3104 320.299 41.9063 316.349 43.261C312.396 44.6156 308.841 42.245 306.073 49.0196C303.306 55.7943 293.821 62.9106 291.449 61.2158C289.078 59.5225 288.683 59.1824 286.706 59.1824C284.729 59.1824 281.963 57.1504 278.406 56.8118C274.849 56.4731 264.176 56.4731 261.413 56.8118C258.645 57.1519 255.485 55.4571 253.111 57.4906C250.741 59.5225 247.185 62.2333 247.185 63.2508C247.185 64.2668 243.627 59.5225 242.442 59.8627C241.257 60.2014 238.093 58.5081 234.539 58.5081C230.982 58.5081 228.609 56.8133 227.426 56.8133C226.241 56.8133 228.609 54.1025 227.426 53.7639C226.241 53.4267 200.549 52.7479 200.549 52.7479C200.549 52.7479 192.251 50.0386 189.09 50.3773C185.928 50.7159 177.234 51.0531 170.513 52.0706C163.793 53.0865 153.913 56.4746 150.752 56.8133C147.59 57.1534 140.477 57.1534 139.292 55.4587C138.105 53.7654 139.687 54.104 138.105 53.7654C136.524 53.4282 137.711 52.7494 134.154 50.3788C130.597 48.0067 135.736 45.9747 128.621 45.9747C121.508 45.9747 117.161 45.6346 110.838 45.9747C104.513 46.3134 91.4723 49.0227 89.892 48.684C88.3117 48.3453 75.6641 50.3788 73.687 49.3628C71.7116 48.3453 61.8296 53.088 59.856 52.7494C57.8806 52.4107 50.3708 53.0896 48.3954 54.1055C46.4183 55.123 36.9331 57.1534 40.0954 58.8482C43.256 60.5415 42.8609 62.2348 43.256 63.2523C43.6528 64.2683 40.0954 66.6389 40.0954 66.6389C40.0954 66.6389 39.3035 66.6389 34.9577 65.2842C30.6102 63.9281 25.8675 63.2523 23.8904 64.2683C21.9151 65.2842 18.3577 67.3192 19.1478 68.6738C19.9397 70.0284 25.4707 73.0779 26.2626 72.0604C27.0528 71.0444 29.0299 69.0125 31.4003 69.3511C33.7725 69.6913 37.3299 67.9965 34.1676 71.3846C31.0052 74.7712 28.238 76.466 26.2626 76.8061C24.2873 77.1433 19.5446 77.4819 15.1971 77.8221C10.8478 78.1623 11.2429 76.4675 7.29216 79.8555C3.34144 83.2421 1.7594 81.2102 0.969257 84.9369C0.179114 88.6621 -0.611029 88.6621 0.969257 89.6796C2.54954 90.6956 -2.19307 91.0343 1.36433 92.0502C4.91997 93.0677 9.26752 94.0837 8.87244 95.0981C8.47562 96.1156 12.8249 93.745 10.4527 96.4528C8.08055 99.165 6.50201 101.534 11.2429 98.8249C15.9855 96.1156 18.751 98.1461 22.7035 96.4528C26.6559 94.7595 30.6084 94.4208 32.9788 93.0662C35.351 91.7101 36.5362 89.6796 40.0936 88.6606C43.651 87.6447 41.2788 89.0008 41.6739 90.6941C42.069 92.3874 41.6739 92.726 44.0461 91.3699C46.4165 90.0153 46.4165 91.0327 49.5789 89.338C52.7394 87.6447 56.2968 85.9499 58.669 86.9658C61.0394 87.9833 61.8296 87.9833 63.4116 87.9833C64.9919 87.9833 61.4363 87.6432 64.9919 87.9833C68.5493 88.3205 63.4116 86.9658 75.2673 89.338C87.1247 91.7086 90.287 90.0153 91.0754 93.742C91.8673 97.4687 93.4476 93.4018 95.423 95.774C97.3983 98.1446 98.5853 96.1141 99.7705 100.178C100.956 104.245 99.7705 115.424 98.9804 116.778C98.1902 118.133 97.7952 118.133 98.1902 121.182C98.5853 124.23 103.328 138.8 101.748 139.814C100.167 140.829 96.6099 141.169 96.6099 141.169L94.6346 147.266C94.6346 147.266 91.474 152.348 88.7067 155.059C85.9395 157.768 82.3838 161.157 80.4067 163.527C78.4314 165.899 76.8493 169.966 74.0838 172.336C71.3183 174.707 68.9461 173.691 69.7363 178.772C70.5264 183.854 69.7363 189.274 70.5264 193.002C71.3183 196.729 73.2937 201.81 74.874 203.843C76.4543 205.875 77.6412 205.875 80.4067 207.569C83.174 209.262 86.7314 211.297 86.3346 212.99C85.9395 214.683 86.7296 225.188 86.7296 225.188C86.7296 225.188 89.1018 228.574 89.4951 232.301C89.892 236.029 92.6575 239.755 92.6575 239.755L95.0296 244.16C95.0296 244.16 96.2149 244.5 97.7969 247.208C99.3772 249.919 99.3772 249.919 99.7723 251.272C100.169 252.63 100.169 252.289 100.169 252.63C100.169 252.967 99.7723 246.869 98.9821 245.175C98.192 243.481 98.192 241.449 97.4018 239.416C96.6117 237.382 97.7969 235.01 95.4265 231.962C93.056 228.915 93.056 228.574 91.8708 225.525C90.6856 222.477 89.1036 219.089 90.6856 218.41C92.2659 217.734 93.4511 213.33 96.6134 218.41C99.774 223.491 100.171 222.138 100.566 226.204C100.959 230.269 102.146 231.625 103.331 233.317C104.517 235.01 107.282 240.772 108.864 243.141C110.444 245.513 108.864 241.787 112.42 246.529C115.977 251.272 116.374 252.288 118.349 256.015C120.325 259.741 121.512 259.741 122.697 262.451C123.882 265.163 123.092 264.484 122.3 267.532C121.51 270.58 123.09 273.97 123.09 273.97C123.09 273.97 128.623 275.663 129.018 276.679C129.413 277.695 134.946 279.388 135.738 280.744C136.528 282.1 141.666 283.792 141.666 283.792C141.666 283.792 146.013 286.164 147.592 286.842C149.174 287.519 153.918 288.198 153.918 288.198C153.918 288.198 157.079 288.876 158.264 289.214C159.449 289.552 163.007 289.552 163.007 289.552C163.007 289.552 166.169 287.52 167.354 288.198C168.539 288.874 171.307 286.842 172.492 288.535C173.677 290.23 176.049 290.23 177.234 291.586C178.42 292.94 179.605 292.94 181.582 294.634C183.559 296.327 185.534 295.988 187.51 297.343C189.485 298.698 191.065 298.698 193.438 298.698C195.808 298.698 195.808 298.698 197.39 299.038C198.969 299.376 199.76 298.02 201.341 299.717C202.921 301.41 204.106 302.426 205.291 304.119C206.477 305.812 209.244 305.812 209.639 308.523C210.034 311.232 210.824 310.897 210.824 313.266C210.824 315.638 212.405 316.654 213.591 317.333C214.775 318.009 219.122 321.395 219.122 321.395L225.05 322.413L229.793 325.462L234.797 326.817L234.936 326.812Z" fill="#F8F8F8"/>
<path d="M361.605 12.0864L385.318 9.54567C385.318 9.54567 393.616 9.54567 397.767 7.00499C401.916 4.4643 397.767 4.4643 410.216 2.43236C422.665 0.398908 419.109 -0.617064 425.631 0.398908C432.15 1.41639 433.929 1.41639 441.044 2.43236C448.157 3.44833 449.936 1.92513 456.455 3.44833C462.976 4.97304 465.94 4.4643 471.276 4.4643H487.875C496.175 4.4643 503.881 0.398908 506.845 2.93959C509.809 5.48028 511.588 4.4643 521.667 5.48028C531.743 6.49625 535.894 4.4628 540.043 5.48028C544.194 6.49625 551.309 4.97304 559.607 5.48028C567.906 5.98751 572.057 4.97304 575.021 4.97304C577.984 4.97304 580.947 1.41488 585.097 4.4643C589.248 7.51373 594.583 3.44833 595.174 7.51373C595.768 11.5791 603.474 8.5297 595.768 11.5791C588.061 14.6285 589.247 14.1198 583.91 18.1852C578.576 22.2506 587.468 25.8073 576.204 29.3654C564.94 32.9221 563.161 27.332 560.197 33.4308C557.233 39.5282 560.197 41.0529 559.606 44.1023C559.012 47.1502 557.827 47.6589 554.27 50.1996C550.714 52.7403 550.714 50.1996 542.414 51.7243C534.114 53.2491 528.186 54.7738 524.63 54.7738C521.073 54.7738 513.367 57.3145 510.994 58.3304C508.622 59.3479 515.145 60.8711 502.694 63.9205C490.245 66.9699 487.28 66.4627 483.724 70.5266C480.166 74.5935 481.352 75.1022 478.981 77.6429C476.609 80.1836 469.496 90.3479 465.939 87.8072C462.383 85.2665 460.603 85.7737 457.639 83.233C454.675 80.6924 452.896 77.1357 451.117 75.1022C449.339 73.0688 448.745 67.9874 448.153 64.938C447.562 61.8886 442.224 54.7753 448.153 55.7912C454.081 56.8072 457.639 56.3 459.417 55.284C461.196 54.2665 462.975 50.7099 462.975 50.7099C462.975 50.7099 462.383 45.1198 460.603 42.0703C458.824 39.0209 460.011 36.4802 457.047 33.4323C454.083 30.3829 454.083 30.8916 449.932 27.8422C445.783 24.7928 446.968 23.2681 440.447 22.7608C433.926 22.2536 432.147 20.7274 429.775 21.2361C427.404 21.7434 419.698 17.678 427.996 17.1707C436.296 16.662 444.002 17.678 444.002 17.678C444.002 17.678 454.673 13.6126 451.117 13.1053C447.562 12.5966 456.452 8.02247 448.153 9.54718C439.853 11.0719 430.37 13.1053 427.998 13.6126C425.627 14.1198 419.698 14.6285 413.77 16.1533C407.844 17.678 400.727 17.1707 397.172 20.7274C393.614 24.284 397.172 24.7928 393.614 24.284C390.059 23.7768 396.578 20.7274 388.28 24.284C379.98 27.8422 382.352 27.3335 378.203 26.3175C374.052 25.3015 371.088 23.7768 371.088 23.7768C371.088 23.7768 376.426 23.2681 368.718 22.7608C361.011 22.2536 361.011 22.2536 358.047 19.2027C355.083 16.1533 356.862 16.1533 358.639 15.1373C360.395 14.1198 361.589 12.0864 361.589 12.0864H361.605Z" fill="#F8F8F8"/>
<path d="M348.558 34.954C345.595 37.4947 338.48 41.0528 340.26 42.5775C342.039 44.1022 343.224 49.6924 346.782 48.1676C350.337 46.6429 346.188 41.5616 359.822 45.627C373.459 49.6924 372.272 45.1197 375.235 51.2171C378.199 57.3144 380.57 61.887 378.791 63.4133C377.014 64.938 376.421 66.4627 370.491 67.9874C364.563 69.5121 362.191 71.5456 366.342 74.0847C370.491 76.6254 378.199 79.1661 381.755 80.6923C385.312 82.2155 395.983 82.7258 390.647 77.6444C385.311 72.563 391.832 71.0368 391.832 71.0368C391.832 71.0368 401.911 77.6444 398.355 70.0208C394.798 62.3988 392.425 62.3988 394.798 62.3988C397.17 62.3988 401.911 64.9395 401.911 64.9395L404.283 60.8741L401.911 54.268L394.204 47.6619C394.204 47.6619 400.724 42.5805 391.832 41.5646C382.94 40.5486 383.532 40.5486 378.789 38.0064C374.047 35.4657 373.455 34.4498 364.562 35.9745C355.67 37.4992 352.706 38.5152 352.706 38.5152L348.58 34.954H348.558Z" fill="#F8F8F8"/>
<path d="M216.359 41.0529C219.916 38.0034 229.401 30.8901 232.959 32.9221C236.514 34.954 241.849 31.3974 246 34.4468C250.149 37.4962 254.891 41.0529 258.449 42.0688C262.006 43.0848 266.155 39.5281 269.713 41.0529C273.268 42.5776 285.718 33.4308 283.347 40.5456C280.975 47.6604 286.311 49.6924 279.79 50.2011C273.268 50.7099 266.155 54.7753 263.19 53.2506C260.226 51.7258 257.854 50.2011 253.111 52.2346C248.368 54.2665 250.741 54.2665 245.404 53.2506C240.07 52.2346 238.885 54.2665 237.7 52.7418C236.513 51.2186 232.957 51.7258 233.549 47.1517C234.14 42.5791 235.919 43.0863 232.362 43.0863C228.806 43.0863 225.842 43.5951 223.47 42.0703C221.117 40.5456 216.376 41.0529 216.376 41.0529H216.359Z" fill="#F8F8F8"/>
</svg>
